<?xml version="1.0" encoding="utf-8"?>
<!-- Generator: Adobe Illustrator 16.0.0, SVG Export Plug-In . SVG Version: 6.00 Build 0)  -->
<!DOCTYPE svg PUBLIC "-//W3C//DTD SVG 1.1//EN" "http://www.w3.org/Graphics/SVG/1.1/DTD/svg11.dtd" [
	<!ENTITY ns_flows "http://ns.adobe.com/Flows/1.0/">
	<!ENTITY ns_extend "http://ns.adobe.com/Extensibility/1.0/">
	<!ENTITY ns_ai "http://ns.adobe.com/AdobeIllustrator/10.0/">
	<!ENTITY ns_graphs "http://ns.adobe.com/Graphs/1.0/">
	<!ENTITY ns_vars "http://ns.adobe.com/Variables/1.0/">
	<!ENTITY ns_imrep "http://ns.adobe.com/ImageReplacement/1.0/">
	<!ENTITY ns_sfw "http://ns.adobe.com/SaveForWeb/1.0/">
	<!ENTITY ns_custom "http://ns.adobe.com/GenericCustomNamespace/1.0/">
	<!ENTITY ns_adobe_xpath "http://ns.adobe.com/XPath/1.0/">
]>
<svg version="1.1" id="Layer_1" xmlns:x="&ns_extend;" xmlns:i="&ns_ai;" xmlns:graph="&ns_graphs;"
	 xmlns="http://www.w3.org/2000/svg" xmlns:xlink="http://www.w3.org/1999/xlink" xmlns:a="http://ns.adobe.com/AdobeSVGViewerExtensions/3.0/"
	 x="0px" y="0px" width="23px" height="24px" viewBox="0 0 23 24" style="enable-background:new 0 0 23 24;" xml:space="preserve">
<style type="text/css">
<![CDATA[
	.st0{clip-path:url(#SVGID_28_);fill:#FFFFFF;}
	.st1{clip-path:url(#SVGID_4_);fill:none;stroke:#FFFFFF;stroke-linecap:round;stroke-linejoin:round;stroke-miterlimit:10;}
	.st2{clip-path:url(#SVGID_8_);fill:#FFFFFF;}
	.st3{clip-path:url(#SVGID_42_);fill:none;stroke:#FFFFFF;stroke-width:0.5;stroke-miterlimit:10;}
	.st4{clip-path:url(#SVGID_30_);fill:none;stroke:#FFFFFF;stroke-width:0.5;stroke-miterlimit:10;}
	.st5{clip-path:url(#SVGID_2_);fill:none;stroke:#FFFFFF;stroke-linecap:round;stroke-linejoin:round;stroke-miterlimit:10;}
	.st6{clip-path:url(#SVGID_40_);fill:#FFFFFF;}
	.st7{clip-path:url(#SVGID_48_);fill:none;stroke:#FFFFFF;stroke-linecap:round;stroke-linejoin:round;stroke-miterlimit:10;}
	.st8{clip-path:url(#SVGID_20_);fill:#FFFFFF;}
	.st9{clip-path:url(#SVGID_46_);fill:none;stroke:#FFFFFF;stroke-width:0.5;stroke-miterlimit:10;}
	.st10{clip-path:url(#SVGID_34_);fill:none;stroke:#FFFFFF;stroke-width:0.5;stroke-miterlimit:10;}
	.st11{clip-path:url(#SVGID_22_);fill:none;stroke:#FFFFFF;stroke-width:0.5;stroke-miterlimit:10;}
	.st12{clip-path:url(#SVGID_32_);fill:#FFFFFF;}
	.st13{clip-path:url(#SVGID_10_);fill:none;stroke:#FFFFFF;stroke-width:0.5;stroke-miterlimit:10;}
	.st14{clip-path:url(#SVGID_44_);fill:#FFFFFF;}
	.st15{clip-path:url(#SVGID_12_);fill:#FFFFFF;}
	.st16{clip-path:url(#SVGID_38_);fill:none;stroke:#FFFFFF;stroke-width:0.5;stroke-miterlimit:10;}
	.st17{clip-path:url(#SVGID_24_);fill:#FFFFFF;}
	.st18{clip-path:url(#SVGID_26_);fill:none;stroke:#FFFFFF;stroke-width:0.5;stroke-miterlimit:10;}
	.st19{clip-path:url(#SVGID_14_);fill:none;stroke:#FFFFFF;stroke-width:0.5;stroke-miterlimit:10;}
	.st20{clip-path:url(#SVGID_36_);fill:#FFFFFF;}
	.st21{clip-path:url(#SVGID_16_);fill:#FFFFFF;}
	.st22{clip-path:url(#SVGID_18_);fill:none;stroke:#FFFFFF;stroke-width:0.5;stroke-miterlimit:10;}
	.st23{clip-path:url(#SVGID_6_);fill:none;stroke:#FFFFFF;stroke-linecap:round;stroke-linejoin:round;stroke-miterlimit:10;}
]]>
</style>
<metadata>
	<sfw  xmlns="&ns_sfw;">
		<slices></slices>
		<sliceSourceBounds  width="22.6" height="24" bottomLeftOrigin="true" x="1388.2" y="384.5"></sliceSourceBounds>
	</sfw>
</metadata>
<g>
	<g>
		<defs>
			<rect id="SVGID_1_" x="0.2" width="22.6" height="24"/>
		</defs>
		<clipPath id="SVGID_2_">
			<use xlink:href="#SVGID_1_"  style="overflow:visible;"/>
		</clipPath>
		<rect x="0.8" y="2" class="st5" width="21.3" height="21.3"/>
	</g>
	<g>
		<defs>
			<rect id="SVGID_3_" x="0.2" width="22.6" height="24"/>
		</defs>
		<clipPath id="SVGID_4_">
			<use xlink:href="#SVGID_3_"  style="overflow:visible;"/>
		</clipPath>
		<line class="st1" x1="7.1" y1="0.6" x2="7.1" y2="3.3"/>
	</g>
	<g>
		<defs>
			<rect id="SVGID_5_" x="0.2" width="22.6" height="24"/>
		</defs>
		<clipPath id="SVGID_6_">
			<use xlink:href="#SVGID_5_"  style="overflow:visible;"/>
		</clipPath>
		<line class="st23" x1="15.9" y1="0.6" x2="15.9" y2="3.3"/>
	</g>
	<g>
		<defs>
			<rect id="SVGID_7_" x="0.2" width="22.6" height="24"/>
		</defs>
		<clipPath id="SVGID_8_">
			<use xlink:href="#SVGID_7_"  style="overflow:visible;"/>
		</clipPath>
		<path class="st2" d="M9.7,11.6h-1c0,0-0.1,0-0.1-0.1v-1c0,0,0-0.1,0.1-0.1h1c0,0,0.1,0,0.1,0.1L9.7,11.6
			C9.8,11.6,9.8,11.6,9.7,11.6"/>
	</g>
	<g>
		<defs>
			<rect id="SVGID_9_" x="0.2" width="22.6" height="24"/>
		</defs>
		<clipPath id="SVGID_10_">
			<use xlink:href="#SVGID_9_"  style="overflow:visible;"/>
		</clipPath>
		<path class="st13" d="M9.7,11.6h-1c0,0-0.1,0-0.1-0.1v-1c0,0,0-0.1,0.1-0.1h1c0,0,0.1,0,0.1,0.1L9.7,11.6
			C9.8,11.6,9.8,11.6,9.7,11.6z"/>
	</g>
	<g>
		<defs>
			<rect id="SVGID_11_" x="0.2" width="22.6" height="24"/>
		</defs>
		<clipPath id="SVGID_12_">
			<use xlink:href="#SVGID_11_"  style="overflow:visible;"/>
		</clipPath>
		<path class="st15" d="M14.5,11.6h-1c0,0-0.1,0-0.1-0.1v-1c0,0,0-0.1,0.1-0.1h1c0,0,0.1,0,0.1,0.1L14.5,11.6
			C14.6,11.6,14.5,11.6,14.5,11.6"/>
	</g>
	<g>
		<defs>
			<rect id="SVGID_13_" x="0.2" width="22.6" height="24"/>
		</defs>
		<clipPath id="SVGID_14_">
			<use xlink:href="#SVGID_13_"  style="overflow:visible;"/>
		</clipPath>
		<path class="st19" d="M14.5,11.6h-1c0,0-0.1,0-0.1-0.1v-1c0,0,0-0.1,0.1-0.1h1c0,0,0.1,0,0.1,0.1L14.5,11.6
			C14.6,11.6,14.5,11.6,14.5,11.6z"/>
	</g>
	<g>
		<defs>
			<rect id="SVGID_15_" x="0.2" width="22.6" height="24"/>
		</defs>
		<clipPath id="SVGID_16_">
			<use xlink:href="#SVGID_15_"  style="overflow:visible;"/>
		</clipPath>
		<path class="st21" d="M19.1,11.6h-1c0,0-0.1,0-0.1-0.1v-1c0,0,0-0.1,0.1-0.1h1c0,0,0.1,0,0.1,0.1L19.1,11.6
			C19.3,11.6,19.3,11.6,19.1,11.6"/>
	</g>
	<g>
		<defs>
			<rect id="SVGID_17_" x="0.2" width="22.6" height="24"/>
		</defs>
		<clipPath id="SVGID_18_">
			<use xlink:href="#SVGID_17_"  style="overflow:visible;"/>
		</clipPath>
		<path class="st22" d="M19.1,11.6h-1c0,0-0.1,0-0.1-0.1v-1c0,0,0-0.1,0.1-0.1h1c0,0,0.1,0,0.1,0.1L19.1,11.6
			C19.3,11.6,19.3,11.6,19.1,11.6z"/>
	</g>
	<g>
		<defs>
			<rect id="SVGID_19_" x="0.2" width="22.6" height="24"/>
		</defs>
		<clipPath id="SVGID_20_">
			<use xlink:href="#SVGID_19_"  style="overflow:visible;"/>
		</clipPath>
		<path class="st8" d="M5,15.8H3.9c0,0-0.1,0-0.1-0.1v-1c0,0,0-0.1,0.1-0.1h1c0,0,0.1,0,0.1,0.1V15.8C5.1,15.8,5,15.8,5,15.8"/>
	</g>
	<g>
		<defs>
			<rect id="SVGID_21_" x="0.2" width="22.6" height="24"/>
		</defs>
		<clipPath id="SVGID_22_">
			<use xlink:href="#SVGID_21_"  style="overflow:visible;"/>
		</clipPath>
		<path class="st11" d="M5,15.8H3.9c0,0-0.1,0-0.1-0.1v-1c0,0,0-0.1,0.1-0.1h1c0,0,0.1,0,0.1,0.1V15.8C5.1,15.8,5,15.8,5,15.8z"/>
	</g>
	<g>
		<defs>
			<rect id="SVGID_23_" x="0.2" width="22.6" height="24"/>
		</defs>
		<clipPath id="SVGID_24_">
			<use xlink:href="#SVGID_23_"  style="overflow:visible;"/>
		</clipPath>
		<path class="st17" d="M9.7,15.8h-1c0,0-0.1,0-0.1-0.1v-1c0,0,0-0.1,0.1-0.1h1c0,0,0.1,0,0.1,0.1L9.7,15.8
			C9.8,15.8,9.8,15.8,9.7,15.8"/>
	</g>
	<g>
		<defs>
			<rect id="SVGID_25_" x="0.2" width="22.6" height="24"/>
		</defs>
		<clipPath id="SVGID_26_">
			<use xlink:href="#SVGID_25_"  style="overflow:visible;"/>
		</clipPath>
		<path class="st18" d="M9.7,15.8h-1c0,0-0.1,0-0.1-0.1v-1c0,0,0-0.1,0.1-0.1h1c0,0,0.1,0,0.1,0.1L9.7,15.8
			C9.8,15.8,9.8,15.8,9.7,15.8z"/>
	</g>
	<g>
		<defs>
			<rect id="SVGID_27_" x="0.2" width="22.6" height="24"/>
		</defs>
		<clipPath id="SVGID_28_">
			<use xlink:href="#SVGID_27_"  style="overflow:visible;"/>
		</clipPath>
		<path class="st0" d="M14.5,15.8h-1c0,0-0.1,0-0.1-0.1v-1c0,0,0-0.1,0.1-0.1h1c0,0,0.1,0,0.1,0.1L14.5,15.8
			C14.6,15.8,14.5,15.8,14.5,15.8"/>
	</g>
	<g>
		<defs>
			<rect id="SVGID_29_" x="0.2" width="22.6" height="24"/>
		</defs>
		<clipPath id="SVGID_30_">
			<use xlink:href="#SVGID_29_"  style="overflow:visible;"/>
		</clipPath>
		<path class="st4" d="M14.5,15.8h-1c0,0-0.1,0-0.1-0.1v-1c0,0,0-0.1,0.1-0.1h1c0,0,0.1,0,0.1,0.1L14.5,15.8
			C14.6,15.8,14.5,15.8,14.5,15.8z"/>
	</g>
	<g>
		<defs>
			<rect id="SVGID_31_" x="0.2" width="22.6" height="24"/>
		</defs>
		<clipPath id="SVGID_32_">
			<use xlink:href="#SVGID_31_"  style="overflow:visible;"/>
		</clipPath>
		<path class="st12" d="M19.1,15.8h-1c0,0-0.1,0-0.1-0.1v-1c0,0,0-0.1,0.1-0.1h1c0,0,0.1,0,0.1,0.1L19.1,15.8
			C19.3,15.8,19.3,15.8,19.1,15.8"/>
	</g>
	<g>
		<defs>
			<rect id="SVGID_33_" x="0.2" width="22.6" height="24"/>
		</defs>
		<clipPath id="SVGID_34_">
			<use xlink:href="#SVGID_33_"  style="overflow:visible;"/>
		</clipPath>
		<path class="st10" d="M19.1,15.8h-1c0,0-0.1,0-0.1-0.1v-1c0,0,0-0.1,0.1-0.1h1c0,0,0.1,0,0.1,0.1L19.1,15.8
			C19.3,15.8,19.3,15.8,19.1,15.8z"/>
	</g>
	<g>
		<defs>
			<rect id="SVGID_35_" x="0.2" width="22.6" height="24"/>
		</defs>
		<clipPath id="SVGID_36_">
			<use xlink:href="#SVGID_35_"  style="overflow:visible;"/>
		</clipPath>
		<path class="st20" d="M5,20.1H3.9c0,0-0.1,0-0.1-0.1v-1c0,0,0-0.1,0.1-0.1h1c0,0,0.1,0,0.1,0.1V20.1C5.1,20,5,20.1,5,20.1"/>
	</g>
	<g>
		<defs>
			<rect id="SVGID_37_" x="0.2" width="22.6" height="24"/>
		</defs>
		<clipPath id="SVGID_38_">
			<use xlink:href="#SVGID_37_"  style="overflow:visible;"/>
		</clipPath>
		<path class="st16" d="M5,20.1H3.9c0,0-0.1,0-0.1-0.1v-1c0,0,0-0.1,0.1-0.1h1c0,0,0.1,0,0.1,0.1V20.1C5.1,20,5,20.1,5,20.1z"/>
	</g>
	<g>
		<defs>
			<rect id="SVGID_39_" x="0.2" width="22.6" height="24"/>
		</defs>
		<clipPath id="SVGID_40_">
			<use xlink:href="#SVGID_39_"  style="overflow:visible;"/>
		</clipPath>
		<path class="st6" d="M9.7,20.1h-1c0,0-0.1,0-0.1-0.1v-1c0,0,0-0.1,0.1-0.1h1c0,0,0.1,0,0.1,0.1L9.7,20.1C9.8,20,9.8,20.1,9.7,20.1
			"/>
	</g>
	<g>
		<defs>
			<rect id="SVGID_41_" x="0.2" width="22.6" height="24"/>
		</defs>
		<clipPath id="SVGID_42_">
			<use xlink:href="#SVGID_41_"  style="overflow:visible;"/>
		</clipPath>
		<path class="st3" d="M9.7,20.1h-1c0,0-0.1,0-0.1-0.1v-1c0,0,0-0.1,0.1-0.1h1c0,0,0.1,0,0.1,0.1L9.7,20.1C9.8,20,9.8,20.1,9.7,20.1
			z"/>
	</g>
	<g>
		<defs>
			<rect id="SVGID_43_" x="0.2" width="22.6" height="24"/>
		</defs>
		<clipPath id="SVGID_44_">
			<use xlink:href="#SVGID_43_"  style="overflow:visible;"/>
		</clipPath>
		<path class="st14" d="M14.5,20.1h-1c0,0-0.1,0-0.1-0.1v-1c0,0,0-0.1,0.1-0.1h1c0,0,0.1,0,0.1,0.1L14.5,20.1
			C14.6,20,14.5,20.1,14.5,20.1"/>
	</g>
	<g>
		<defs>
			<rect id="SVGID_45_" x="0.2" width="22.6" height="24"/>
		</defs>
		<clipPath id="SVGID_46_">
			<use xlink:href="#SVGID_45_"  style="overflow:visible;"/>
		</clipPath>
		<path class="st9" d="M14.5,20.1h-1c0,0-0.1,0-0.1-0.1v-1c0,0,0-0.1,0.1-0.1h1c0,0,0.1,0,0.1,0.1L14.5,20.1
			C14.6,20,14.5,20.1,14.5,20.1z"/>
	</g>
	<g>
		<defs>
			<rect id="SVGID_47_" x="0.2" width="22.6" height="24"/>
		</defs>
		<clipPath id="SVGID_48_">
			<use xlink:href="#SVGID_47_"  style="overflow:visible;"/>
		</clipPath>
		<line class="st7" x1="0.8" y1="6.9" x2="22.2" y2="6.9"/>
	</g>
</g>
</svg>
